<svg width="20" height="20" viewBox="0 0 20 20" fill="#10243E" xmlns="http://www.w3.org/2000/svg">
<path d="M11 0.0499988V2.05C15.39 2.59 18.5 6.58 17.96 10.97C17.5 14.61 14.64 17.5 11 17.93V19.93C16.5 19.38 20.5 14.5 19.95 9C19.5 4.25 15.73 0.499999 11 0.0299988V0.0499988ZM3.66999 17.74C5.17999 19 7.03999 19.79 8.99999 20V18C7.57999 17.82 6.22999 17.25 5.09999 16.37L3.66999 17.74ZM5.09999 3.74C6.21999 2.84 7.56999 2.26 8.99999 2.06V0.0599988C7.04999 0.249999 5.18999 0.999999 3.66999 2.26L5.09999 3.74ZM3.68999 5.1L2.25999 3.67C0.999988 5.19 0.249988 7.04 0.0499878 9H2.04999C2.23999 7.58 2.79999 6.23 3.68999 5.1ZM2.05999 11H0.0599878C0.259988 12.96 1.02999 14.81 2.26999 16.33L3.68999 14.9C2.80999 13.77 2.23999 12.42 2.05999 11ZM7.99999 14.5L14 10L7.99999 5.5V14.5Z" />
</svg>
